# xmcd
#
# Track frame offsets:
# 150
# 16702
# 31542
# 55062
# 68340
# 82495
# 99785
# 117927
# 138645
# 159647
# 220230
#
# Disc length: 3170 seconds
#
#
# Revision: 2
# Processed by: cddbd v1.5.2PL0 Copyright (c) Steve Scherf et al.
# Submitted via: FreeRIP 2.951 
#
DISCID=860c600b
DTITLE=Hobo Blues Band - Kocsmaopera
DYEAR=1991
DGENRE=Blues
TTITLE0=Minden eladó
TTITLE1=Az öreg hippy balladája
TTITLE2=Nem lettünk jobbak
TTITLE3=Biliárd éjjel
TTITLE4=Rum ária
TTITLE5=BAZ megye blues
TTITLE6=Lépj be az R'N'R Pártba!
TTITLE7=Az utolsó Hév
TTITLE8=Szabadíts fel!
TTITLE9=A blues nyomában
TTITLE10=Kelj fel, Jancsi!
EXTD=
EXTT0=
EXTT1=
EXTT2=
EXTT3=
EXTT4=
EXTT5=
EXTT6=
EXTT7=
EXTT8=
EXTT9=
EXTT10=
PLAYORDER=
